<?xml version="1.0" encoding="utf-8"?>
<!-- Generator: Adobe Illustrator 27.0.1, SVG Export Plug-In . SVG Version: 6.00 Build 0)  -->
<svg version="1.1" id="Layer_1" xmlns="http://www.w3.org/2000/svg" xmlns:xlink="http://www.w3.org/1999/xlink" x="0px" y="0px"
	 viewBox="0 0 300.45 319.84" style="enable-background:new 0 0 300.45 319.84;" xml:space="preserve">
<g>
	<g>
		<path d="M200.07,197.53c9.09-5.21,17.18-10.07,25.47-14.58c29.46-16.01,63.48-1.87,72.96,30.23c6.39,21.63-3.33,44.79-24.25,57
			c-24.7,14.41-49.44,28.76-74.39,42.73c-5.38,3.01-11.58,5.19-17.66,6.18c-19.87,3.21-35.91-3.99-47.98-19.86
			c-1.99-2.62-3.88-3.45-6.96-3.44c-31.33,0.09-62.66,0.11-93.99,0.03c-16.69-0.04-29.09-9.74-32.54-25.36
			c-0.6-2.73-0.63-5.62-0.63-8.43C0.06,223.36,0.16,184.7,0,146.03c-0.04-8.88,2.44-16.59,7.82-23.59
			c8.01-10.43,15.56-21.22,23.81-31.45c4.32-5.36,6.41-10.78,5.91-17.71c-0.34-4.76-0.12-8.61-5.42-11.39
			c-4.86-2.55-6.91-7.97-6.97-13.62c-0.11-10-0.2-20,0.02-30C25.39,8.11,33.08,0.19,43.32,0.14c37.83-0.18,75.66-0.2,113.49,0.01
			c10.48,0.06,17.83,8.12,18.19,19.29c0.29,9.16,0.18,18.33,0.03,27.5c-0.13,7.55-3.46,13.38-10.14,17.17
			c-0.84,0.47-2.25,1.21-2.21,1.74c0.48,6.78-2.56,13.97,2.19,20.28c9.1,12.11,18.09,24.3,27.32,36.31
			c5.4,7.03,7.94,14.84,7.91,23.64C200.03,162.91,200.07,179.73,200.07,197.53z M12.62,245.49c1.35,0.16,2.16,0.33,2.97,0.33
			c37.33,0.02,74.66,0.06,111.99-0.11c1.72-0.01,3.71-1.57,5.11-2.9c4.9-4.67,8.97-10.51,14.5-14.16
			c11.92-7.86,24.6-14.56,36.83-21.95c1.53-0.92,3.2-3.14,3.23-4.78c0.23-15.33,0.13-30.66,0.08-45.99c0-0.59-0.36-1.18-0.5-1.59
			c-58.19,0-116.1,0-174.2,0C12.62,184.8,12.62,214.9,12.62,245.49z M149.86,66.4c-33.39,0-66.42,0-99.79,0
			c0,4.15-0.3,7.99,0.07,11.76c0.61,6.21-1.48,11.13-5.3,15.98c-9.36,11.9-18.36,24.08-27.3,36.3c-2.15,2.94-3.51,6.46-5.56,10.32
			c59.21,0,117.08,0,176.16,0c-2.3-4.13-3.85-7.77-6.13-10.88c-8.75-11.94-17.8-23.67-26.57-35.6c-1.77-2.41-3.63-3.32-6.6-3.3
			c-17.82,0.13-35.65,0-53.47,0.11c-4.3,0.03-7.25-1.34-7.74-5.84c-0.42-3.82,2.7-6.24,7.75-6.25c16.32-0.03,32.65-0.01,48.97-0.01
			c1.77,0,3.53,0,5.5,0C149.86,74.53,149.86,70.74,149.86,66.4z M189.72,217.89c-12.5,7.33-24.98,13.99-36.77,21.71
			c-14.9,9.75-19.91,29.79-12.41,46.03c7.7,16.66,25.93,25.45,43.44,20.4c5.33-1.54,10.37-4.32,15.27-7.02
			c9.4-5.18,18.6-10.7,27.98-16.14C214.66,261.09,202.38,239.82,189.72,217.89z M99.98,12.54c-17.81,0-35.62-0.03-53.43,0.02
			c-7.21,0.02-9.1,1.99-9.14,9.28c-0.04,7.82-0.08,15.65,0.01,23.47c0.07,6.26,2.53,8.59,8.89,8.7c1.66,0.03,3.33,0.01,4.99,0.01
			c33.96,0,67.92,0.01,101.87-0.01c7.16-0.01,9.17-2.06,9.21-9.21c0.04-7.66,0.03-15.31,0-22.97c-0.03-7.67-1.61-9.26-9.47-9.27
			C135.27,12.51,117.63,12.53,99.98,12.54z M238.12,276.72c11.7-6.85,23-12.87,33.66-19.86c15.7-10.29,20.51-31.53,11.6-48.14
			c-9.12-17-29.58-25-46.86-17.08c-12.29,5.64-23.76,13.07-36.02,19.93C213.12,233.41,225.45,254.76,238.12,276.72z M12.86,258.27
			c-1.99,15.64,5.92,24.76,21.1,24.77c28.95,0.02,57.89,0.01,86.84-0.01c1.72,0,3.44-0.14,4.43-0.19c0-8.52,0-16.41,0-24.57
			C88.24,258.27,50.7,258.27,12.86,258.27z"/>
		<path d="M106.15,195.85c6.31,0,11.93-0.06,17.55,0.02c4.85,0.06,7.46,2.28,7.41,6.1c-0.05,3.89-2.58,5.98-7.53,6.03
			c-5.62,0.07-11.24,0.02-17.42,0.02c0,6.04-0.06,11.64,0.02,17.24c0.06,4.19-1.26,7.28-5.9,7.68c-3.96,0.34-6.26-2.44-6.35-7.64
			c-0.1-5.61-0.02-11.22-0.02-17.28c-6.24,0-11.86,0.05-17.48-0.01c-5.05-0.06-7.35-2.01-7.36-6.07c-0.02-4.06,2.25-5.99,7.31-6.07
			c4.32-0.07,8.66-0.2,12.97,0.04c3.42,0.19,4.81-0.87,4.61-4.46c-0.25-4.64-0.08-9.31,0-13.97c0.08-4.12,1.97-6.71,6.38-6.5
			c4.08,0.2,5.78,2.78,5.8,6.64C106.17,183.42,106.15,189.24,106.15,195.85z"/>
		<path d="M67.77,91.03c-3.02-0.23-4.95-2.48-5.14-6.07c-0.19-3.47,2.96-6.16,6.55-5.92c3.92,0.26,5.76,2.82,5.6,6.3
			C74.61,88.85,72.46,91.13,67.77,91.03z"/>
	</g>
</g>
</svg>
