<?xml version="1.0" encoding="utf-8"?>
<!-- Generator: Adobe Illustrator 27.0.1, SVG Export Plug-In . SVG Version: 6.00 Build 0)  -->
<svg version="1.1" id="Layer_1" xmlns="http://www.w3.org/2000/svg" xmlns:xlink="http://www.w3.org/1999/xlink" x="0px" y="0px"
	 viewBox="0 0 255.03 320.05" style="enable-background:new 0 0 255.03 320.05;" xml:space="preserve">
<g>
	<g>
		<path d="M165,70.85c0-3.23,0-6.01,0-8.78c0-10.33,0.13-20.67-0.04-30.99c-0.22-13.05-8.43-21.01-21.45-21.07
			c-5.82-0.03-11.65-0.01-17.65-0.01c-1.4,3.51-2.73,6.88-4.09,10.24c-2.75,6.77-6.94,9.72-14.07,9.74
			c-13.33,0.04-26.66-0.06-39.99,0.04c-6.8,0.05-11.39-3.01-14.02-9.16c-1.5-3.51-2.9-7.06-4.44-10.8c-7.04,0-14.04-0.36-20.99,0.09
			c-9.73,0.63-17.18,8.4-18.08,18.17c-0.17,1.82-0.18,3.66-0.18,5.49C10,117.12,10,200.44,10,283.76c0,1.82,0,3.65,0,5.87
			c51.68,0,103.04,0,154.89,0c0-6.35,0-12.61,0-19.24c3.51,0,6.54,0,10.73,0c-0.7,9.54-0.35,19.15-2.31,28.26
			c-2.7,12.53-14.68,21.24-27.52,21.29c-38.83,0.14-77.65,0.16-116.48,0c-15.27-0.06-27.85-12.23-29.08-27.47
			c-0.16-1.99-0.22-3.99-0.22-5.99C0,202.16-0.01,117.84,0.01,33.52c0-16.25,6.65-26.83,20.11-31.62c3.22-1.14,6.79-1.79,10.2-1.8
			c38.16-0.12,76.32-0.13,114.48-0.05c16.17,0.03,29.14,11.98,29.92,28.1c0.59,12.3,0.31,24.66,0.14,36.98
			c-0.02,1.32-1.72,3.06-3.07,3.81C170,69.93,167.78,70.12,165,70.85z M12.98,300.17c4.57,6.96,10.37,9.82,17.63,9.84
			c15.65,0.05,31.29,0.02,46.94,0.02c22.14,0,44.27,0.03,66.41-0.01c8.45-0.01,15.11-3.89,17.11-9.84
			C112,300.17,62.95,300.17,12.98,300.17z M114.28,10.25c-17.88,0-35.7,0-53.56,0c1.85,9.29,2.41,9.77,11.02,9.78
			c10.29,0,20.59,0,30.88,0C111.88,20.02,111.88,20.02,114.28,10.25z"/>
		<path d="M163.64,178.16c-12.7-13.59-17.06-28.07-15.47-44.81c0.8-8.39-0.53-16.98,0.17-25.39c1.62-19.45,8.3-25.27,26.62-29.44
			c11.12-2.53,22.13-1.59,32.85,2.47c11.64,4.41,18.1,12.88,18.75,25.17c0.67,12.76,1.17,25.58,0.66,38.32
			c-0.51,12.68-5.73,23.79-15.9,33.8c3.94,2.96,7.18,6.35,11.14,8.2c19.66,9.2,30.84,24.2,32.29,45.98
			c0.47,6.97,0.18,13.99,0.23,20.99c0.03,3.57-1.1,6.54-5.21,6.4c-3.79-0.12-4.65-3.01-4.8-6.35c-0.42-9.78,0.1-19.77-1.75-29.28
			c-2.6-13.39-11.66-22.37-23.8-28.15c-20.94,17.15-41.79,17.14-63.81-0.04c-15.15,7.43-24.22,19.23-25.38,36.42
			c-0.46,6.8-0.21,13.66-0.23,20.49c-0.01,3.67-0.76,7.04-5.22,6.91c-4.12-0.12-4.95-3.38-4.77-6.83
			c0.55-10.61-0.22-21.52,2.07-31.74c3.63-16.12,14.36-27.26,29.44-34.35C155.83,184.91,159.38,181.31,163.64,178.16z
			 M217.41,136.38c-20.12-3.96-39.79-5.02-59.43-0.18c-1.71,12.55,3.22,26.29,12.1,34.24c9.18,8.22,21.51,9.52,31.23,2.71
			C213.98,164.3,217.84,151.41,217.41,136.38z M217.95,126.25c-0.54-8.35-0.59-15.82-1.64-23.14c-0.76-5.29-4.08-9.33-9.27-11.55
			c-13.06-5.59-26.23-5.44-39.17-0.11c-3.01,1.24-6.12,4.39-7.36,7.4c-3.47,8.41-3.36,17.43-2.64,26.96
			C177.67,121.86,197.12,122.37,217.95,126.25z M165.23,190.29c11.96,11.24,34.78,11.18,44.49-0.15c-1.9-2.18-3.82-4.4-5.82-6.7
			c-11.19,5.48-22.24,5.18-33.09,0.05C168.75,185.99,166.99,188.15,165.23,190.29z"/>
		<path d="M69.5,155.41c7.92,7.94,15.51,15.55,24.09,24.16c1.36-1.75,2.79-4.01,4.63-5.86c4.48-4.52,9.35-4.77,14.16-0.76
			c3.06,2.56,6,5.28,8.78,8.13c3.44,3.53,4.03,8.26,1.55,11.95c-5.01,7.45-10.92,14.17-20.52,16.24c-8.5,1.83-15.99,0.02-22.11-5.89
			c-11.36-10.98-22.57-22.13-33.5-33.53c-8.59-8.96-9.31-22.85-2.06-33.05c2.49-3.5,5.47-6.71,8.55-9.72
			c3.82-3.72,8.75-4.13,12.65-0.89c3.44,2.85,6.64,6.08,9.49,9.51c3.45,4.16,3.09,9.41-0.44,13.69
			C72.99,151.54,71.1,153.59,69.5,155.41z M58.95,133.99c-2.3,2.66-4.81,5.1-6.77,7.92c-4.64,6.67-4.17,15.35,1.42,21.1
			c10.68,10.97,21.48,21.83,32.48,32.48c6.15,5.95,14.36,5.73,20.62-0.09c2.38-2.21,4.49-4.72,6.03-6.37
			c-2.57-3.22-4.8-6.02-7.14-8.95c-1.8,1.92-3.04,3.25-4.3,4.58c-5.87,6.19-11.16,6.36-17.17,0.45
			c-7.24-7.12-14.48-14.24-21.62-21.46c-5.16-5.21-5.25-10.37-0.53-15.86c1.69-1.97,3.39-3.94,4.99-5.8
			C64.13,139.17,61.69,136.72,58.95,133.99z"/>
		<path d="M135.97,149.78c-0.23,3.64-0.35,7.26-4.96,7.49c-4.4,0.22-5.28-3.09-5.51-6.75c-1.03-16.77-13.48-29.02-30.56-30.62
			c-2.22-0.21-5.24-1.77-6.19-3.59c-1.79-3.45,1.39-6.32,6.33-6.28c16.5,0.12,33.04,12.42,38.3,28.66
			C134.55,142.29,135.13,146.08,135.97,149.78z"/>
		<path d="M115.51,153.27c-0.8,0.74-2.35,3.33-4.43,3.86c-3.34,0.86-4.91-1.89-5.5-4.97c-1.52-7.99-4.2-10.75-12.13-12.13
			c-3.25-0.56-5.32-2.03-4.98-5.54c0.35-3.58,2.9-4.49,6.05-4.44C105.54,130.22,115.53,140.33,115.51,153.27z"/>
		<path d="M182.3,110.17c-3.75-0.19-6.97-0.78-7.08-5.03c-0.12-4.59,3.45-5.01,6.92-5.36c-0.34-0.4-0.69-0.79-1.03-1.19
			c2.12-1.97,4.23-5.46,6.38-5.49c2.1-0.03,4.25,3.47,5.9,5.99c2.89,1.05,6.5,1.43,6.39,6.02c-0.1,4.21-3.21,4.95-6.94,4.97
			c-0.52,3.43-0.71,7.41-5.57,7.22C183.03,117.13,182.56,113.82,182.3,110.17z"/>
	</g>
</g>
</svg>
