<?xml version="1.0" encoding="utf-8"?>
<!-- Generator: Adobe Illustrator 27.0.1, SVG Export Plug-In . SVG Version: 6.00 Build 0)  -->
<svg version="1.1" id="Layer_1" xmlns="http://www.w3.org/2000/svg" xmlns:xlink="http://www.w3.org/1999/xlink" x="0px" y="0px"
	 viewBox="0 0 288.37 320.13" style="enable-background:new 0 0 288.37 320.13;" xml:space="preserve">
<g>
	<g>
		<path d="M43.22,21.2C44.75,5.19,48.46,0.2,58.41,0.01c10.71-0.2,13.92,3.82,16.39,20.87c46.17,0,92.4,0,139.15,0
			c0.16-6.61-0.77-13.95,5.95-17.9c3.1-1.82,7.15-2.8,10.77-2.81c9.26-0.02,12.54,4.93,14.55,21.04c5.19,0,10.48,0.15,15.76-0.03
			c18.8-0.62,27.46,12.94,27.4,27.05c-0.37,81.81-0.36,163.62-0.02,245.42c0.06,15.31-10.75,26.55-26.33,26.48
			c-78.64-0.34-157.28-0.15-235.93-0.16c-16.43,0-25.94-9.54-25.94-26.05C0.15,211.78,0.3,129.64,0,47.5
			C-0.05,34.76,7.98,21.05,26.1,21.2C31.73,21.24,37.36,21.2,43.22,21.2z M9.82,97.85c-0.13,1.64-0.28,2.61-0.28,3.59
			c-0.01,58.17-0.05,116.33,0.03,174.5C9.58,286.57,15.38,292,26.17,292c59,0.01,118,0.01,177,0c9.61,0,13.52-3.95,13.57-13.7
			c0.05-9.67-0.19-19.34,0.13-29c0.38-11.35,8.58-19.19,19.94-19.37c9-0.15,18-0.04,27-0.05c11.62-0.01,15-3.3,15-14.73
			c0.01-37.17,0-74.33,0-111.5c0-1.78,0-3.57,0-5.8c-2.62,0-4.59,0-6.56,0c-62.83,0-125.66,0-188.5,0c-1.5,0-3.33,0.51-4.43-0.16
			c-1.89-1.16-3.33-3.06-4.96-4.65c1.5-1.52,2.77-3.5,4.57-4.42c1.47-0.75,3.59-0.3,5.42-0.3c62.5-0.01,125-0.01,187.5-0.01
			c2.12,0,4.24,0,6.38,0c0-16.05,0.37-31.5-0.18-46.92c-0.22-6.11-6.59-10.42-13.26-10.47c-12.67-0.08-25.33-0.04-38-0.01
			c-1.09,0-2.19,0.31-3.54,0.51c0,3.43,0.15,6.58-0.04,9.72c-0.27,4.5,0.66,7.65,5.92,8.71c1.53,0.31,2.47,3.52,3.68,5.4
			c-2.13,1.2-4.34,3.54-6.37,3.4c-6.87-0.48-12.06-6.51-12.31-13.48c-0.16-4.6-0.03-9.22-0.03-13.84c-54.03,0-107.39,0-160.94,0
			c0,4.1,0.12,7.76-0.03,11.42c-0.15,3.66,0.9,6.04,4.96,6.67c3.3,0.51,5.08,2.7,4.05,6.12c-1.03,3.41-3.79,3.84-6.86,3.1
			c-7.18-1.73-11.32-6.94-11.64-14.85c-0.16-4.11-0.03-8.24-0.03-12.9c-6.2,0-11.86,0.39-17.44-0.09
			c-9.64-0.82-16.95,5.5-16.72,16.4c0.26,12.16,0.05,24.33,0.08,36.5c0,1.42,0.25,2.84,0.41,4.61c2.09,0,3.74,0,5.39,0
			c14.5,0,29-0.02,43.5,0.03c3.05,0.01,6,0.94,6.07,4.52c0.07,3.76-2.7,5-6.12,4.98c-1.33-0.01-2.67,0-4,0
			C39.98,97.85,25.16,97.85,9.82,97.85z M10.34,299.05c-0.2,6.65,5.92,11.76,15.85,11.76c78.64,0.02,157.28,0.02,235.92,0
			c11.04,0,16.62-5.51,16.69-16.54c0.09-14.49,0.03-28.99,0-43.48c0-1.17-0.3-2.34-0.46-3.51c-0.45-0.23-0.89-0.47-1.34-0.7
			c-1.09,1.46-2.03,3.08-3.3,4.37c-13.74,13.82-27.63,27.5-41.27,41.41c-5.82,5.93-12.37,8.79-20.84,8.76
			c-60.14-0.19-120.29-0.04-180.43-0.19C24.2,300.91,17.25,299.7,10.34,299.05z M270.93,239.08c-11.34,0-22.64-0.1-33.94,0.04
			c-5.7,0.07-10.51,3.97-10.64,9.21c-0.32,11.89-0.1,23.79-0.1,35.51C241.14,268.92,255.94,254.1,270.93,239.08z M52.2,20.84
			c5.14,0,8.82,0,14.05,0c-1.42-4.1-2.06-7.79-4-10.58c-0.75-1.08-5.84-0.99-6.55,0.11C53.88,13.22,53.39,16.93,52.2,20.84z
			 M236.29,20.89c-1.32-4.06-1.89-7.77-3.77-10.6c-0.72-1.08-5.81-1.06-6.55,0.04c-1.89,2.82-2.45,6.52-3.76,10.56
			C227.31,20.89,230.87,20.89,236.29,20.89z"/>
		<path d="M260.1,196.03c0,3.66,0.11,7.32-0.03,10.97c-0.2,5.31-3.22,8.97-8.5,9.23c-7.79,0.39-15.61,0.38-23.4,0.07
			c-5.12-0.2-8.45-3.45-8.68-8.52c-0.35-7.63-0.37-15.29-0.02-22.92c0.26-5.76,4.01-8.85,9.9-8.91c6.98-0.07,13.96-0.08,20.94,0.01
			c5.9,0.08,9.56,3.7,9.78,9.6C260.2,189.05,260.1,192.54,260.1,196.03z M250.19,206.87c0-7.34,0-14.24,0-21.3
			c-7.21,0-14.08,0-21.05,0c0,7.29,0,14.18,0,21.3C236.23,206.87,242.99,206.87,250.19,206.87z"/>
		<path d="M48.49,215.03c-3.66,0-7.31,0.1-10.97-0.03c-5.39-0.19-9.06-3.67-9.21-9.09c-0.2-7.47-0.25-14.96,0.03-22.43
			c0.18-4.88,3.04-8.41,7.97-8.69c8.1-0.45,16.26-0.47,24.37-0.05c5.02,0.26,8.07,3.85,8.26,8.99c0.26,7.3,0.28,14.63,0.01,21.93
			c-0.22,6.05-3.86,9.24-9.99,9.35C55.47,215.09,51.98,215.03,48.49,215.03z M59.3,184.3c-7.29,0-14.17,0-21.17,0
			c0,7.22,0,14.12,0,21.22c7.2,0,14.07,0,21.17,0C59.3,198.39,59.3,191.6,59.3,184.3z"/>
		<path d="M48.61,272.97c-3.65,0-7.31,0.08-10.96-0.02c-5.42-0.15-9.16-3.55-9.32-8.95c-0.22-7.47-0.21-14.95,0-22.42
			c0.14-5.11,3.67-8.75,8.86-8.93c7.63-0.27,15.28-0.28,22.91,0.01c5.43,0.2,8.71,3.78,8.88,9.44c0.22,7.14,0.24,14.29-0.01,21.42
			c-0.22,6.12-3.79,9.33-9.88,9.43C55.59,273.02,52.1,272.97,48.61,272.97z M59.18,263.69c0-7.29,0-14.31,0-21.38
			c-7.25,0-14.13,0-20.91,0c0,7.36,0,14.38,0,21.38C45.48,263.69,52.22,263.69,59.18,263.69z"/>
		<path d="M48.66,157.09c-3.65,0-7.31,0.09-10.96-0.03c-5.41-0.18-9.21-3.64-9.37-8.95c-0.23-7.47-0.2-14.95-0.01-22.42
			c0.12-5.01,3.34-8.63,8.32-8.85c7.95-0.34,15.94-0.36,23.89-0.01c5.2,0.23,8.27,3.78,8.44,9.28c0.22,7.14,0.24,14.29,0,21.43
			c-0.2,6.07-3.82,9.4-9.83,9.54C55.64,157.16,52.15,157.09,48.66,157.09z M59.1,147.55c0-7.31,0-14.31,0-21.34
			c-7.19,0-13.94,0-20.84,0c0,7.27,0,14.26,0,21.34C45.45,147.55,52.18,147.55,59.1,147.55z"/>
		<path d="M239.6,157.1c-3.49,0-6.98,0.07-10.47-0.02c-5.62-0.14-9.34-3.13-9.63-8.65c-0.39-7.62-0.36-15.29-0.04-22.91
			c0.22-5.36,3.55-8.59,8.95-8.79c7.63-0.28,15.28-0.29,22.91,0.04c5.3,0.23,8.6,3.8,8.73,9.01c0.18,7.31,0.18,14.62,0.01,21.93
			c-0.13,5.62-3.86,9.13-9.49,9.38c-0.33,0.02-0.66,0.01-1,0.01C246.24,157.1,242.92,157.1,239.6,157.1z M229.11,147.52
			c7.17,0,14.04,0,21.15,0c0-7.23,0-14.13,0-21.27c-7.17,0-14.05,0-21.15,0C229.11,133.44,229.11,140.34,229.11,147.52z"/>
		<path d="M112.25,215.03c-3.67,0-7.33,0.11-10.99-0.03c-5.45-0.2-9.02-3.69-9.13-9.15c-0.15-7.33-0.14-14.66-0.01-21.99
			c0.09-5.22,2.86-8.8,8.03-9.09c8.12-0.46,16.3-0.39,24.43,0c4.72,0.23,7.66,3.44,7.82,8.22c0.26,7.82,0.34,15.66,0,23.47
			c-0.23,5.39-3.77,8.37-9.16,8.54C119.58,215.12,115.91,215.03,112.25,215.03z M123.06,184.25c-7.37,0-14.28,0-21.3,0
			c0,7.3,0,14.31,0,21.24c7.35,0,14.25,0,21.3,0C123.06,198.32,123.06,191.53,123.06,184.25z"/>
		<path d="M196.27,195.18c0,3.5,0.09,7-0.02,10.49c-0.17,5.5-3.6,9.18-8.98,9.3c-7.49,0.17-14.99,0.15-22.49,0
			c-4.94-0.1-8.46-3-8.69-7.85c-0.38-8.14-0.34-16.31-0.06-24.45c0.18-5.14,3.72-7.87,8.54-8.08c7.64-0.33,15.33-0.39,22.96,0.03
			c5.69,0.31,8.58,3.89,8.72,9.55C196.35,187.85,196.27,191.52,196.27,195.18z M186.59,205.64c0-7.39,0-14.4,0-21.3
			c-7.35,0-14.25,0-21.15,0c0,7.26,0,14.17,0,21.3C172.54,205.64,179.31,205.64,186.59,205.64z"/>
		<path d="M112.07,272.97c-3.66,0-7.33,0.1-10.99-0.03c-5.14-0.18-8.82-3.65-8.93-8.78c-0.18-7.66-0.19-15.33,0.01-22.98
			c0.13-4.8,3.3-8.25,8.14-8.44c7.98-0.32,15.99-0.31,23.96-0.01c4.73,0.18,7.89,3.14,8.07,7.93c0.3,8.14,0.34,16.31-0.06,24.45
			c-0.24,4.85-3.8,7.59-8.71,7.85c-0.17,0.01-0.33,0.01-0.5,0.01C119.4,272.97,115.73,272.97,112.07,272.97z M122.82,263.79
			c0-7.56,0-14.59,0-21.47c-7.31,0-14.2,0-21.06,0c0,7.37,0,14.39,0,21.47C108.97,263.79,115.74,263.79,122.82,263.79z"/>
		<path d="M92.08,136.5c0-3.5-0.09-7,0.02-10.49c0.17-5.46,3.07-8.96,8.45-9.2c7.81-0.35,15.65-0.35,23.46-0.01
			c5.36,0.23,8.21,3.22,8.44,8.67c0.31,7.48,0.32,14.99,0.04,22.47c-0.23,5.94-3.72,9.04-9.66,9.13c-6.99,0.1-13.99,0.1-20.99,0
			c-6.06-0.09-9.58-3.59-9.75-9.58C91.99,143.83,92.08,140.16,92.08,136.5z M123.01,126.37c-7.36,0-14.38,0-21.3,0
			c0,7.32,0,14.21,0,21.14c7.3,0,14.2,0,21.3,0C123.01,140.38,123.01,133.59,123.01,126.37z"/>
		<path d="M176.06,157.09c-3.66,0-7.33,0.1-10.99-0.02c-5.22-0.17-8.78-3-9.01-8.09c-0.37-8.13-0.3-16.31,0.02-24.45
			c0.17-4.57,3.15-7.5,7.72-7.66c8.14-0.29,16.31-0.35,24.45,0.01c4.9,0.22,7.86,3.67,7.97,8.57c0.17,7.66,0.19,15.33-0.02,22.98
			c-0.13,4.83-3.79,8.35-8.64,8.59c-3.82,0.19-7.66,0.04-11.49,0.04C176.06,157.07,176.06,157.08,176.06,157.09z M186.82,126.26
			c-7.45,0-14.36,0-21.43,0c0,7.21,0,14.11,0,21.16c7.29,0,14.3,0,21.43,0C186.82,140.2,186.82,133.43,186.82,126.26z"/>
		<path d="M186.86,263.96c0-7.6,0-14.38,0-21.58c-7.14,0-14.17,0-21.78,0c0,1.96,0.59,4.17-0.16,5.76
			c-0.85,1.82-2.81,4.17-4.43,4.27c-1.43,0.1-4.2-2.41-4.4-4.01c-1.18-9.28-0.17-16.54,12.66-15.96c5.81,0.26,11.65-0.07,17.47,0.1
			c6.78,0.2,9.98,3.55,10.04,10.29c0.06,6.82,0.09,13.65-0.01,20.47c-0.09,6.07-3.6,9.58-9.61,9.65
			c-7.32,0.09-14.65,0.13-21.97-0.02c-5.04-0.1-8.91-3.78-8.63-8.4c0.1-1.66,1.36-4.01,2.72-4.61c1.31-0.57,4.4,0.18,5.01,1.3
			c1.55,2.8,3.65,2.82,6.2,2.77C175.44,263.9,180.9,263.96,186.86,263.96z"/>
	</g>
</g>
</svg>
