<?xml version="1.0" encoding="utf-8"?>
<!-- Generator: Adobe Illustrator 27.0.1, SVG Export Plug-In . SVG Version: 6.00 Build 0)  -->
<svg version="1.1" id="Layer_1" xmlns="http://www.w3.org/2000/svg" xmlns:xlink="http://www.w3.org/1999/xlink" x="0px" y="0px"
	 viewBox="0 0 256.4 256" style="enable-background:new 0 0 256.4 256;" xml:space="preserve">
<style type="text/css">
	.st0{fill:#010101;}
	.st1{fill:#020202;}
	.st2{fill:#030303;}
</style>
<g>
	<path d="M102.7,128c0,30.5,0.1,61-0.1,91.5c0,3.7,0.8,4.7,4.6,4.7c44.3-0.2,88.6-0.1,132.9-0.1c6.6,0,8.5-1.9,8.5-8.7
		c0-6,0-12,0-18c0-2.7,0.7-5.3,4-5.1c2.9,0.2,3.5,2.5,3.5,5.1c-0.1,6.8,0.1,13.7-0.1,20.5c-0.2,7.4-4.9,12.5-12.2,13.5
		c-2,0.3-4,0.3-6,0.3c-43.3,0-86.6,0.1-129.9-0.1c-3.7,0-5.5,0.4-6,4.8c-0.8,7.2-7.3,13.3-14.6,13.6c-16.8,0.8-33.6,0.8-50.4,0
		c-7.4-0.4-13.8-6.7-14.7-14.1c-0.4-3.4-1.4-4.4-4.8-4.3c-12.7,0-17.3-4.8-17.3-17.6c0-57.6,0-115.3,0-172.9c0-12,4.9-17.1,16.9-17
		c3.2,0,4.9-0.3,5.3-4.3c0.8-7.4,7.4-13.5,14.9-13.8c16.5-0.8,33-0.7,49.4,0c8.1,0.3,14.3,6.4,15.4,14.5c0.4,3.1,1.6,3.7,4.4,3.6
		c19.8-0.1,39.6-0.1,59.5-0.1c1.2,0,2.3-0.1,3.5,0c2.3,0.2,3.7,1.4,3.7,3.8c0,2.3-1.4,3.3-3.5,3.5c-1.5,0.2-3,0.1-4.5,0.1
		c-19.2,0-38.3,0.1-57.5-0.1c-4,0-5.3,0.9-5.3,5.1C102.7,67,102.7,97.5,102.7,128z M95.2,128.2c0-34.2,0-68.3,0-102.5
		c0-9-3.7-12.7-12.8-12.7c-13.2,0-26.3,0-39.5,0c-10.3,0-13.6,3.4-13.6,13.9c0,45,0,90,0,135c0,1.5,0.1,3-0.2,4.5
		c-0.3,1.9-1.6,2.9-3.5,2.9c-1.8,0-3.3-0.9-3.5-2.9c-0.2-1.6-0.2-3.3-0.2-5c0-34.8,0-69.7,0-104.5c0-7.3-0.1-14.7,0-22
		c0-2.6-0.7-3.4-3.3-3.5C9.7,31.1,7.7,32.9,7.7,41.9c0,57.3,0,114.6,0,172c0,8.9,1.6,10.3,10.6,10.2c2.8,0,3.7-0.8,3.7-3.6
		c-0.2-7.7-0.1-15.3-0.1-23c0-5,0-10,0-15c0-2.5,1.2-4.4,3.8-4.3c2.6,0.1,3.7,2,3.6,4.5c0,1.2,0,2.3,0,3.5c0,14.8,0,29.7,0,44.5
		c0,8.3,3.9,12.3,12.2,12.3c13.5,0,27,0,40.5,0c9.7,0,13.2-3.5,13.2-13.3C95.2,195.9,95.2,162,95.2,128.2z"/>
	<path class="st0" d="M178.7,86c-17.3,0-34.7,0-52,0c-6.1,0-6.6-0.6-6.7-6.5c0-7.7,0.1-15.3,0-23c-0.1-4.1,1.6-5.6,5.7-5.6
		c35.2,0.1,70.3,0.1,105.5,0c4.5,0,5.9,1.9,5.8,6c-0.1,7.7-0.1,15.3,0,23c0.1,4.5-1.8,6.2-6.3,6.1C213.3,85.9,196,86,178.7,86z
		 M178.4,78.5c15.7,0,31.3-0.1,47,0.1c2.8,0,4.3-0.4,4-3.7c-0.3-4.3-0.2-8.7,0-13c0.1-2.4-0.4-3.6-3.2-3.5
		c-31.8,0.1-63.6,0.1-95.4,0c-2.7,0-3.4,1-3.3,3.5c0.2,4,0.3,8,0,12c-0.3,3.7,0.7,4.9,4.6,4.8C147.4,78.3,162.9,78.5,178.4,78.5z"/>
	<path class="st1" d="M256.2,108.5c0,22.7,0,45.3,0,68c0,1.5,0.1,3-0.2,4.5c-0.4,1.8-1.9,2.8-3.7,2.7c-1.5-0.1-3-0.9-3.2-2.7
		c-0.3-1.8-0.3-3.6-0.3-5.5c0-44.6,0-89.3,0-133.9c0-8.7-1.4-10.1-10.2-10.1c-16.2,0-32.3,0-48.5,0c-1.3,0-2.7,0-4-0.1
		c-2.3-0.2-3.9-1.5-3.7-3.9c0.2-2.3,1.7-3.5,4.1-3.5c3,0,6,0,9,0c14.8,0,29.6,0,44.5,0c11.2,0,16.3,5.2,16.3,16.6
		C256.2,63.2,256.2,85.9,256.2,108.5z"/>
	<path class="st0" d="M211.1,122.2c-7.2,0-13-5.8-12.9-13c0.1-6.9,5.8-12.6,12.7-12.7c7.2-0.1,13.1,5.6,13.2,12.7
		C224.2,116.4,218.3,122.2,211.1,122.2z M205.9,109.2c0.1,3.4,1.9,5.4,5.1,5.5c3.2,0.1,5.3-1.8,5.4-5.2c0.1-3.3-1.8-5.4-5.1-5.5
		C208.1,104,206.2,106,205.9,109.2z"/>
	<path class="st0" d="M224.1,138.4c0,7.1-5.8,12.9-13,12.9c-7.2,0-13-5.9-12.9-13c0.1-6.9,5.8-12.5,12.7-12.6
		C218.2,125.6,224.1,131.3,224.1,138.4z M205.9,138.6c0.3,3.3,2.2,5.2,5.4,5.1c3.2-0.1,5.2-2.2,5.1-5.5c-0.1-3.3-2.1-5.2-5.4-5.1
		C207.8,133.2,206,135.3,205.9,138.6z"/>
	<path class="st0" d="M211.1,180.3c-7.2,0-13-5.8-12.9-13c0.1-7.1,6-12.8,13.2-12.6c7,0.1,12.6,5.8,12.7,12.7
		C224.2,174.5,218.3,180.3,211.1,180.3z M205.9,167.7c0.4,3.3,2.2,5.2,5.5,5.1c3.2-0.1,5.2-2.2,5-5.5c-0.1-3.3-2.2-5.2-5.4-5.1
		C207.8,162.3,206,164.4,205.9,167.7z"/>
	<path class="st0" d="M190.2,196.7c0,7.1-5.8,12.9-13,12.9c-6.9-0.1-12.6-5.8-12.8-12.7c-0.2-7,5.7-13,12.8-13
		C184.6,183.8,190.2,189.4,190.2,196.7z M172.1,196.6c0.2,3.2,1.9,5.2,5.2,5.3c3.4,0.1,5.3-2,5.4-5.2c0.1-3.3-2-5.4-5.2-5.5
		C174.4,191.3,172.3,193.1,172.1,196.6z"/>
	<path class="st0" d="M224.1,196.8c-0.1,7.1-6.2,12.9-13.3,12.7c-6.9-0.2-12.6-6-12.6-12.8c0-7.1,5.8-12.9,13-12.9
		C218.4,183.9,224.2,189.7,224.1,196.8z M205.9,196.8c0.3,3.1,2,5.2,5.3,5.2c3.3,0,5.2-2,5.2-5.3c0-3.3-2-5.3-5.2-5.3
		C208,191.3,206.1,193.3,205.9,196.8z"/>
	<path class="st0" d="M190.2,109.5c0,7.2-5.8,12.8-13.1,12.7c-7.2-0.1-13-6.1-12.8-13.1c0.2-6.9,6-12.5,12.9-12.5
		C184.6,96.6,190.3,102.3,190.2,109.5z M172.1,109c0,3.5,1.9,5.5,5,5.7c3.3,0.2,5.4-1.9,5.6-5.1c0.2-3.2-1.7-5.4-5-5.6
		C174.4,104,172.5,105.9,172.1,109z"/>
	<path class="st0" d="M190.2,167.4c0,7.2-5.6,12.9-12.9,12.9c-7.2,0-13-5.9-12.9-12.9c0.1-6.9,5.8-12.6,12.7-12.7
		C184.4,154.6,190.2,160.2,190.2,167.4z M172.1,167c0,3.5,1.7,5.6,4.9,5.8c3.3,0.3,5.4-1.8,5.7-5c0.2-3.2-1.7-5.5-4.9-5.7
		C174.5,161.9,172.6,163.9,172.1,167z"/>
	<path class="st0" d="M190.2,138.5c0,7.2-5.7,12.8-13,12.8c-7.2,0-13-6-12.8-13c0.2-6.9,5.9-12.5,12.8-12.6
		C184.5,125.6,190.3,131.3,190.2,138.5z M172,138.2c0.1,3.2,1.8,5.4,5,5.6c3.3,0.2,5.4-1.8,5.6-5c0.2-3.2-1.7-5.5-5-5.6
		C174.5,132.9,172.6,134.9,172,138.2z"/>
	<path class="st0" d="M156.4,196.6c0,7.3-5.8,13.1-13,13c-7-0.1-12.6-5.8-12.6-12.8c0-7.3,5.7-13,13-12.9
		C150.9,183.9,156.4,189.5,156.4,196.6z M149.1,196.8c-0.4-3.4-2.3-5.5-5.5-5.5c-3.2,0-5.4,2-5.3,5.4c0,3.2,2,5.3,5.3,5.3
		C147,202,148.6,199.8,149.1,196.8z"/>
	<path class="st0" d="M143.8,151.3c-7.3,0.1-13.1-5.6-13-12.8c0-7.1,5.6-12.7,12.6-12.8c7.3-0.1,13,5.6,13,12.9
		C156.4,145.6,150.9,151.2,143.8,151.3z M143.4,133c-3.1,0.6-5.2,2.4-5.1,5.7c0.2,3.3,2.3,5.3,5.6,5.1c3.2-0.1,5.3-2.3,5.1-5.6
		C148.8,135,146.6,133.3,143.4,133z"/>
	<path class="st0" d="M143.8,180.3c-7.3,0.1-13-5.6-13-12.9c0-7.1,5.6-12.7,12.7-12.7c7.1-0.1,12.8,5.4,12.9,12.4
		C156.6,174.5,151.1,180.2,143.8,180.3z M149.1,167.4c-0.5-3.2-2.3-5.3-5.5-5.3c-3.2,0.1-5.3,2.1-5.3,5.4c0,3.3,2.2,5.3,5.4,5.3
		C147,172.8,148.7,170.6,149.1,167.4z"/>
	<path class="st0" d="M156.4,109.4c0,7.3-5.7,12.9-13,12.9c-7.1-0.1-12.6-5.7-12.6-12.8c0-7.3,5.8-13,13-12.9
		C150.9,96.7,156.4,102.3,156.4,109.4z M149.1,109.3c-0.5-3.1-2.2-5.3-5.5-5.2c-3.3,0.1-5.3,2.2-5.3,5.4c0,3.3,2.2,5.3,5.4,5.3
		C146.9,114.8,148.7,112.6,149.1,109.3z"/>
	<path class="st2" d="M66.2,133c0,19.8,0,39.6,0,59.4c0,1.5,0,3-0.3,4.5c-0.3,1.6-1.7,2.6-3.2,2.6c-1.8,0.1-3.3-0.7-3.7-2.7
		c-0.3-1.6-0.3-3.3-0.3-5c0-39.3,0-78.6,0-117.9c0-0.8,0-1.7,0-2.5c0.1-2.6,0.1-5.4,3.5-5.5c3.7-0.1,4,2.7,4,5.5
		C66.2,92,66.2,112.5,66.2,133z"/>
</g>
</svg>
