<?xml version="1.0" encoding="utf-8"?>
<!-- Generator: Adobe Illustrator 27.0.1, SVG Export Plug-In . SVG Version: 6.00 Build 0)  -->
<svg version="1.1" id="Layer_1" xmlns="http://www.w3.org/2000/svg" xmlns:xlink="http://www.w3.org/1999/xlink" x="0px" y="0px"
	 viewBox="0 0 256.394 255.999" style="enable-background:new 0 0 256.394 255.999;" xml:space="preserve">
<g>
	<g>
		<path d="M163.951,255.999c-10.295-0.172-19.228-2.422-27.714-6.673C78.194,220.251,35.196,176.161,6.534,118.183
			c-11.079-22.411-7.776-44.061,7.681-63.6c4.213-5.326,9.268-10.039,14.266-14.678c5.951-5.524,13.935-5.41,19.784,0.337
			C61.695,53.436,75.01,66.749,88.199,80.183c6.009,6.121,5.813,14.257-0.214,20.558c-5.066,5.296-10.371,10.363-15.512,15.589
			c-5.068,5.152-5.488,9.119-1.551,15.096c2.289,3.475,4.766,6.825,7.156,10.233c1.887,2.691,2.124,5.413-0.709,7.457
			c-2.784,2.009-5.419,1.139-7.336-1.559c-3.181-4.477-6.552-8.858-9.303-13.594c-4.405-7.583-2.947-16.797,3.442-23.46
			c5.072-5.29,10.258-10.479,15.553-15.547c3.37-3.225,3.393-5.929,0.017-9.251C67.275,73.433,54.917,61.049,42.627,48.6
			c-3.143-3.184-5.667-3.157-8.856-0.011c-9.041,8.919-18.147,17.655-21.534,30.614c-3.078,11.773-2.441,23.175,2.96,34.046
			c28.032,56.432,69.734,99.406,126.351,127.504c19.034,9.446,41.107,5.802,56.424-8.926c3.362-3.233,6.586-6.609,9.922-9.87
			c2.596-2.538,2.969-5.061,0.264-7.762c-12.85-12.832-25.693-25.671-38.53-38.517c-2.657-2.659-5.17-2.478-7.761,0.146
			c-5.034,5.097-10.089,10.174-15.21,15.184c-8.314,8.133-17.578,9.147-27.126,2.761c-5.392-3.607-10.531-7.592-15.777-11.417
			c-2.742-1.999-4.296-4.601-2.035-7.645c2.426-3.267,5.399-2.352,8.279-0.191c4.66,3.498,9.315,7.013,14.126,10.295
			c6.709,4.577,10.365,4.124,16.257-1.705c4.738-4.687,9.4-9.451,14.151-14.124c7.335-7.214,15.17-7.31,22.37-0.164
			c12.771,12.676,25.506,25.389,38.173,38.169c6.891,6.952,6.795,14.949-0.096,22.003c-3.376,3.456-6.766,6.904-10.265,10.233
			C193.078,250.29,179.135,255.691,163.951,255.999z"/>
		<path d="M150.278,0.025c53.092,1.24,99.529,44.058,105.229,97.056c0.374,3.474,0.625,6.964,0.834,10.453
			c0.224,3.73-0.072,7.467-4.997,7.487c-4.568,0.019-4.915-3.476-5.024-7.064c-0.745-24.396-9.008-45.941-25.28-64.136
			c-19.171-21.437-43.344-32.594-72.093-33.796c-1.165-0.049-7.378-0.302-7.375-4.929c0.003-3.668,2.172-4.637,4.293-4.945
			C147.471-0.083,148.779,0.025,150.278,0.025z"/>
		<path d="M226.572,107.371c-0.341,1.663-0.204,3.994-1.283,5.376c-1.003,1.285-3.752,2.566-4.922,2.042
			c-1.72-0.772-3.473-2.989-3.877-4.876c-1.003-4.69-0.844-9.63-1.868-14.313c-6.982-31.934-33.738-54.169-66.436-55.627
			c-2.103-0.094-4.825-0.889-6.082-2.362c-2.739-3.211,0.221-8.101,4.912-7.416c9.807,1.432,20.106,2.272,29.097,6.011
			C207.329,49.188,223.354,73.667,226.572,107.371z"/>
		<path d="M148.238,60.1c25.228,0.647,47.218,22.595,48.016,47.901c0.108,3.435-0.393,6.664-4.533,7.018
			c-4.504,0.385-5.265-2.755-5.533-6.511c-1.539-21.577-16.881-36.766-38.72-38.355c-3.629-0.264-6.438-1.238-6.139-5.402
			C141.63,60.58,144.806,59.981,148.238,60.1z"/>
		<path d="M165.986,108.332c0.236,1.688-0.311,3.402-1.485,4.637c-0.755,0.795-1.67,1.586-2.728,1.918
			c-2.928,0.918-5.131-1.002-5.47-4.185c-0.678-6.362-4.021-9.93-10.438-10.603c-3.164-0.332-5.336-2.399-4.366-5.284
			c0.647-1.923,3.385-4.302,5.327-4.435C155.578,89.779,164.553,98.091,165.986,108.332z"/>
		<path d="M91.968,165.851c-1.445,1.734-4.108,1.735-5.573,0.018c-0.999-1.171-1.73-2.138-1.972-3.214
			c-0.697-3.104,1.652-5.566,4.508-5.065c1.944,0.341,4.416,2.918,4.85,4.891C93.973,163.346,93.148,164.435,91.968,165.851z"/>
	</g>
</g>
</svg>
